<svg width="120" height="120" viewBox="0 0 120 120" fill="none" xmlns="http://www.w3.org/2000/svg">
<circle cx="60" cy="60" r="60" fill="#5600BA"/>
<path d="M39.604 52.3242H32.6953V73.6783H39.604V52.3242Z" fill="white"/>
<path d="M86.9907 52.3242H80.082V73.6783H86.9907V52.3242Z" fill="white"/>
<path d="M56.3789 77.6448C56.3789 79.0001 55.2715 80.1075 53.9163 80.1075C52.561 80.1075 51.4536 79.0001 51.4536 77.6448V42.4238H44.5449V77.6283C44.5449 82.8015 48.7595 86.9996 53.9163 86.9996C59.073 86.9996 63.2876 82.785 63.2876 77.6283V56.2246H56.3789V77.6283V77.6448Z" fill="white"/>
<path d="M75.1352 42.4238H68.2266V83.5618H75.1352V42.4238Z" fill="white"/>
<path d="M59.8341 53.1331C61.6357 53.1331 63.0901 51.6786 63.0901 49.8771C63.0901 48.0756 61.6357 46.6211 59.8341 46.6211C58.0326 46.6211 56.5781 48.0756 56.5781 49.8771C56.5781 51.6786 58.0326 53.1331 59.8341 53.1331Z" fill="white"/>
<path d="M47.9982 39.512C49.7997 39.512 51.2542 38.0575 51.2542 36.256C51.2542 34.4545 49.7997 33 47.9982 33C46.1966 33 44.7422 34.4545 44.7422 36.256C44.7422 38.0575 46.1966 39.512 47.9982 39.512Z" fill="white"/>
</svg>
