<svg width="162" height="64" viewBox="0 0 162 64" fill="none" xmlns="http://www.w3.org/2000/svg">
<g clip-path="url(#clip0_5084_38897)">
<path d="M75.0337 24.6221L70.4405 38.5971L65.9341 24.6221H61.6993L57.0409 38.4994L52.5889 24.6221H47.8545L54.3371 44.3631H59.2126L63.6972 30.9852L68.0733 44.3631H72.9271L79.4097 24.6221H75.0337Z" fill="white"/>
<path d="M86.5106 28.9648C85.3053 28.9648 84.1217 29.1169 82.9598 29.4318C81.798 29.7467 80.799 30.2027 79.9737 30.8L81.5265 33.8729C82.0911 33.4386 82.7644 33.102 83.5462 32.8414C84.328 32.5916 85.1207 32.4613 85.9242 32.4613C87.1078 32.4613 87.9874 32.7219 88.5629 33.254C89.1384 33.7861 89.4207 34.5136 89.4207 35.4583V35.4909H85.9568C84.3932 35.4909 83.1336 35.6755 82.178 36.0555C81.2225 36.4356 80.5166 36.9677 80.0823 37.6518C79.6371 38.3358 79.4199 39.1177 79.4199 40.0081C79.4199 40.8985 79.648 41.6586 80.1149 42.3535C80.5709 43.0485 81.2333 43.6023 82.0803 44.0041C82.9273 44.4058 83.9371 44.6121 85.099 44.6121C86.4346 44.6121 87.5205 44.3515 88.3674 43.8412C88.9429 43.4937 89.3881 43.0268 89.7248 42.4838V44.395H93.8402V35.7406C93.8402 33.4277 93.1995 31.7229 91.9182 30.6371C90.6369 29.5512 88.8452 28.9974 86.5323 28.9974L86.5106 28.9648ZM88.1611 41.1157C87.5639 41.4523 86.9015 41.626 86.1414 41.626C85.3813 41.626 84.7949 41.4631 84.3497 41.1374C83.9045 40.8116 83.6874 40.3664 83.6874 39.8018C83.6874 39.2914 83.8828 38.8679 84.2629 38.5313C84.6429 38.1947 85.3596 38.0209 86.3912 38.0209H89.4099V39.5737C89.171 40.2687 88.7475 40.7899 88.1611 41.1265V41.1157Z" fill="white"/>
<path d="M104.275 39.5308L100.073 29.1934H95.5664L101.94 44.3629H106.447L112.853 29.1934H108.651L104.275 39.5308Z" fill="white"/>
<path d="M127.469 29.9428C126.329 29.2913 125.037 28.9655 123.593 28.9655C122.333 28.9655 121.226 29.2478 120.27 29.8125C119.814 30.084 119.412 30.4206 119.054 30.8115V23.4385H114.656V44.3631H118.859V42.6148C119.239 43.0817 119.684 43.4618 120.194 43.755C121.161 44.3088 122.29 44.5911 123.593 44.5911C125.037 44.5911 126.329 44.2653 127.469 43.6138C128.61 42.9623 129.511 42.061 130.173 40.8883C130.836 39.7264 131.172 38.3474 131.172 36.7729C131.172 35.1984 130.836 33.8193 130.173 32.6575C129.511 31.4956 128.599 30.5835 127.469 29.9319V29.9428ZM126.199 39.0315C125.852 39.6721 125.385 40.1608 124.82 40.4865C124.244 40.8123 123.593 40.9752 122.855 40.9752C122.116 40.9752 121.465 40.8123 120.878 40.4865C120.292 40.1608 119.825 39.6721 119.477 39.0315C119.13 38.3908 118.956 37.6416 118.956 36.7729C118.956 35.9042 119.13 35.1332 119.477 34.5143C119.825 33.8953 120.292 33.4176 120.878 33.0918C121.465 32.766 122.116 32.6032 122.855 32.6032C123.593 32.6032 124.244 32.766 124.82 33.0918C125.395 33.4176 125.852 33.8953 126.199 34.5143C126.546 35.1332 126.72 35.8825 126.72 36.7729C126.72 37.6633 126.546 38.3908 126.199 39.0315Z" fill="white"/>
<path d="M145.615 29.9638C144.355 29.3015 142.911 28.9648 141.304 28.9648C139.697 28.9648 138.285 29.3015 137.036 29.9638C135.788 30.6262 134.799 31.5492 134.094 32.7219C133.377 33.8947 133.019 35.2411 133.019 36.7722C133.019 38.3033 133.377 39.6172 134.094 40.7899C134.81 41.9626 135.788 42.8856 137.036 43.5697C138.285 44.2429 139.707 44.5904 141.304 44.5904C142.9 44.5904 144.355 44.2538 145.615 43.5697C146.874 42.8965 147.862 41.9735 148.579 40.8116C149.296 39.6497 149.654 38.3033 149.654 36.7831C149.654 35.2629 149.296 33.9164 148.579 32.7328C147.862 31.5601 146.874 30.6371 145.615 29.9747V29.9638ZM144.67 39.0308C144.322 39.6715 143.866 40.1601 143.291 40.4859C142.715 40.8116 142.053 40.9745 141.304 40.9745C140.554 40.9745 139.936 40.8116 139.36 40.4859C138.774 40.1601 138.318 39.6715 137.959 39.0308C137.612 38.3901 137.438 37.6409 137.438 36.7722C137.438 35.9035 137.612 35.1325 137.959 34.5136C138.307 33.8947 138.774 33.4169 139.36 33.0911C139.946 32.7654 140.598 32.6025 141.336 32.6025C142.075 32.6025 142.726 32.7654 143.302 33.0911C143.877 33.4169 144.333 33.8947 144.681 34.5136C145.028 35.1325 145.202 35.8818 145.202 36.7722C145.202 37.6626 145.028 38.3901 144.681 39.0308H144.67Z" fill="white"/>
<path d="M158.363 29.801C157.722 30.1593 157.201 30.6371 156.788 31.2126V29.1929H152.586V44.3624H156.984V37.1957C156.984 35.7515 157.353 34.6765 158.08 33.9815C158.819 33.2866 159.796 32.9391 161.045 32.9391C161.197 32.9391 161.349 32.9391 161.512 32.9717C161.675 32.9934 161.837 33.0151 162 33.0585V28.9648C160.567 28.9648 159.362 29.2472 158.363 29.801Z" fill="white"/>
<path d="M4.53891 26.9453H0V40.9747H4.53891V26.9453Z" fill="white"/>
<path d="M35.6707 26.9453H31.1318V40.9747H35.6707V26.9453Z" fill="white"/>
<path d="M15.5599 43.5812C15.5599 44.4716 14.8324 45.1991 13.942 45.1991C13.0516 45.1991 12.3241 44.4716 12.3241 43.5812V20.4414H7.78516V43.5703C7.78516 46.9691 10.5541 49.7271 13.942 49.7271C17.3299 49.7271 20.0989 46.9582 20.0989 43.5703V29.5084H15.5599V43.5703V43.5812Z" fill="white"/>
<path d="M27.8846 20.4414H23.3457V47.4685H27.8846V20.4414Z" fill="white"/>
<path d="M17.8296 27.4775C19.0132 27.4775 19.9687 26.522 19.9687 25.3384C19.9687 24.1548 19.0132 23.1992 17.8296 23.1992C16.646 23.1992 15.6904 24.1548 15.6904 25.3384C15.6904 26.522 16.646 27.4775 17.8296 27.4775Z" fill="white"/>
<path d="M10.0552 18.5303C11.2388 18.5303 12.1943 17.5747 12.1943 16.3911C12.1943 15.2075 11.2388 14.252 10.0552 14.252C8.87158 14.252 7.91602 15.2075 7.91602 16.3911C7.91602 17.5747 8.87158 18.5303 10.0552 18.5303Z" fill="white"/>
</g>
<defs>
<clipPath id="clip0_5084_38897">
<rect width="162" height="35.4752" fill="white" transform="translate(0 14.2627)"/>
</clipPath>
</defs>
</svg>
